<mxfile host="app.diagrams.net" modified="2023-04-05T13:08:18.522Z" agent="Mozilla/5.0 (Macintosh; Intel Mac OS X 10_15_7) AppleWebKit/605.1.15 (KHTML, like Gecko) Version/16.0 Safari/605.1.15" version="21.1.2" etag="09J6xrF-ZoJZLOTQSDnb" type="github">
  <diagram name="第 1 页" id="DpWjpTrRLR56Bfg4YwXq">
    <mxGraphModel>
      <root>
        <mxCell id="0" />
        <mxCell id="1" parent="0" />
      </root>
    </mxGraphModel>
  </diagram>
</mxfile>
